<?xml version="1.0" standalone="no"?>
<!DOCTYPE svg PUBLIC "-//W3C//DTD SVG 20010904//EN"
 "http://www.w3.org/TR/2001/REC-SVG-20010904/DTD/svg10.dtd">
<svg version="1.0" xmlns="http://www.w3.org/2000/svg"
 width="425.000000pt" height="425.000000pt" viewBox="0 0 425.000000 425.000000"
 preserveAspectRatio="xMidYMid meet">
<metadata>
Created by potrace 1.11, written by Peter Selinger 2001-2013
</metadata>
<g transform="translate(0.000000,425.000000) scale(0.100000,-0.100000)"
fill="#000000" stroke="none">
<path d="M1929 4015 c-67 -20 -163 -71 -422 -225 -18 -10 -43 -25 -57 -33 -24
-13 -164 -94 -649 -374 -270 -157 -298 -181 -391 -343 -17 -31 -59 -137 -74
-192 -15 -52 -16 -137 -13 -795 4 -760 4 -754 42 -845 7 -17 -3 -18 -129 -18
l-136 0 14 -33 c7 -17 39 -91 71 -163 l57 -131 -62 -154 c-34 -85 -64 -160
-67 -166 -4 -10 107 -13 537 -13 l542 0 97 -54 c53 -30 196 -113 319 -185 206
-120 290 -160 367 -175 210 -40 369 -14 528 88 31 20 152 90 269 157 117 66
230 132 250 145 l38 24 540 0 c297 0 540 1 540 3 0 2 -29 72 -65 156 -36 84
-65 161 -65 170 0 9 31 86 70 171 l70 155 -130 3 c-72 1 -130 6 -130 10 0 4 5
23 10 42 28 91 31 171 30 775 -1 732 -4 812 -23 883 -33 115 -148 288 -235
355 -44 33 -606 361 -997 583 -22 12 -87 50 -145 83 -58 34 -137 74 -175 90
-67 28 -78 30 -210 29 -115 -1 -154 -5 -216 -23z m431 -520 c113 -26 314 -130
620 -321 213 -133 289 -202 368 -336 65 -110 135 -268 152 -343 6 -25 12 -202
14 -393 5 -376 0 -427 -49 -573 -27 -79 -105 -225 -159 -300 l-34 -45 -1133 2
c-624 1 -1142 2 -1151 3 -25 1 -112 135 -168 261 -76 167 -82 222 -77 656 l4
359 30 95 c44 136 93 237 158 327 105 145 164 190 503 391 294 174 314 184
418 211 102 27 119 29 269 26 105 -2 186 -9 235 -20z"/>
<path d="M1539 3101 c-160 -57 -258 -182 -267 -341 l-4 -78 76 1 c61 1 76 5
76 17 4 100 18 143 65 192 112 119 297 87 376 -64 11 -21 17 -38 14 -38 -2 0
0 -11 5 -25 5 -14 6 -25 1 -25 -4 0 -6 -17 -3 -37 5 -38 5 -50 2 -88 0 -11 1
-35 3 -52 2 -18 2 -33 1 -33 -1 0 -19 8 -40 17 -129 56 -274 54 -392 -3 -49
-24 -145 -108 -177 -155 -79 -115 -98 -264 -50 -399 84 -237 351 -362 581
-272 27 11 57 23 66 26 15 7 16 -5 16 -126 -1 -153 10 -190 70 -236 l35 -27
486 -3 c267 -1 496 0 508 3 30 7 81 52 101 89 15 28 17 80 17 491 1 253 -2
474 -7 491 -18 70 -104 128 -190 127 -16 0 -28 2 -29 6 0 3 -2 26 -3 50 -3 43
-17 61 -47 61 -25 0 -38 -21 -41 -70 l-3 -45 -288 -1 c-236 -1 -287 1 -288 12
-1 8 -2 27 -3 42 -2 57 -51 82 -79 42 -8 -11 -13 -37 -12 -59 l2 -39 -41 0
-41 -1 0 112 c0 125 -10 176 -50 257 -39 79 -142 161 -232 185 -54 15 -166 13
-214 -4z m572 -641 c1 -3 2 -31 3 -64 1 -44 6 -62 21 -72 25 -18 31 -18 54 5
15 15 18 31 16 75 -2 51 -1 56 19 57 25 1 500 0 537 0 24 -1 26 -4 27 -63 1
-66 18 -92 50 -81 34 12 40 24 38 83 l-2 60 43 0 c29 0 50 -7 69 -23 26 -22
27 -28 29 -124 l1 -100 -30 -2 c-17 -1 -38 -2 -46 -2 -8 0 -46 1 -85 0 -38 0
-74 0 -80 0 -39 1 -193 0 -205 -1 -8 -1 -25 2 -37 6 -15 5 -23 3 -23 -4 0 -6
-4 -8 -10 -5 -5 3 -49 6 -97 5 -118 -1 -108 -1 -199 1 -45 1 -86 -1 -92 -5 -6
-4 -17 16 -27 51 -9 32 -25 74 -36 95 -24 46 -22 98 4 107 21 8 57 9 58 1z
m904 -647 c0 -170 -4 -317 -8 -328 -18 -51 -28 -52 -519 -51 l-458 1 -26 26
c-26 26 -26 29 -28 180 -1 85 0 163 2 174 2 11 18 37 36 58 l32 38 -1 -215 c0
-185 2 -215 15 -218 8 -2 211 -3 450 -3 l435 1 3 299 2 300 -417 -1 c-230 0
-423 1 -429 3 -7 3 -10 13 -7 24 5 18 19 19 462 19 l457 0 -1 -307z"/>
</g>
</svg>
